<?xml version="1.0" encoding="utf-8"?>
<!-- Generator: Adobe Illustrator 21.0.0, SVG Export Plug-In . SVG Version: 6.00 Build 0)  -->
<svg version="1.1" id="Layer_1" xmlns="http://www.w3.org/2000/svg" xmlns:xlink="http://www.w3.org/1999/xlink" x="0px" y="0px"
	 viewBox="0 0 609.5 793.7" style="enable-background:new 0 0 609.5 793.7;" xml:space="preserve">
<style type="text/css">
	.st0{fill:#FFFFFF;}
	.st1{fill:#808080;}
	.st2{fill:#EB1F27;}
</style>
<g>
	<path class="st0" d="M112.1,396.6c0-69,0-138,0.1-207c0-4.3,0.6-8.7,1.9-12.7c3.8-12.4,14.3-20.1,27.3-20.1
		c108.8,0,217.6-0.1,326.4,0c16.7,0,29,12.7,29.5,30.1c0,1,0,2,0,3c0,138,0,276-0.1,413.9c0,3.9-0.4,8-1.5,11.8
		c-3.7,13.4-14.6,21.3-29,21.3c-83.8,0-167.6,0-251.5,0c-23.8,0-47.7,0-71.5,0c-19.4,0-31.7-12.3-31.7-31.9
		C112.1,535.6,112.1,466.1,112.1,396.6z"/>
	<path class="st1" d="M112.1,396.6c0-69,0-138,0.1-207c0-4.3,0.6-8.7,1.9-12.7c3.8-12.4,14.3-20.1,27.3-20.1
		c108.8,0,217.6-0.1,326.4,0c16.7,0,29,12.7,29.5,30.1c0,1,0,2,0,3c0,138,0,276-0.1,413.9c0,3.9-0.4,8-1.5,11.8
		c-3.7,13.4-14.6,21.3-29,21.3c-83.8,0-167.6,0-251.5,0c-23.8,0-47.7,0-71.5,0c-19.4,0-31.7-12.3-31.7-31.9
		C112.1,535.6,112.1,466.1,112.1,396.6z M479.1,397.1c0-69,0-138,0-206.9c0-10.9-3.1-14.1-13.8-14.1c-107.1,0-214.3,0-321.4,0
		c-10.2,0-13.5,3.3-13.5,13.4c0,138.3,0,276.6,0,414.9c0,10,3.4,13.3,13.6,13.3c107.1,0,214.3,0,321.4,0c10.5,0,13.8-3.2,13.8-13.6
		C479.1,535,479.1,466.1,479.1,397.1z"/>
	<g>
		<g>
			<path class="st2" d="M456.9,289.5c0,21.2,0,42.3,0,63.5c0,9.2-4.1,13.3-13.4,13.4c-6.5,0.1-13,0.1-19.5,0
				c-7.7-0.2-12.1-4.6-12.1-12.2c-0.1-43.1-0.1-86.3,0-129.4c0-7.7,4.6-12.4,12.4-12.6c6.7-0.2,13.3-0.2,20,0
				c8.1,0.2,12.6,4.9,12.6,12.9C456.9,246.5,456.9,268,456.9,289.5z"/>
			<path class="st2" d="M401.4,304.5c0,16.3,0,32.6,0,48.9c0,9.1-3.9,12.9-13.1,13c-6.3,0.1-12.6,0.1-19,0
				c-8.4-0.2-12.6-4.4-12.6-12.7c0-33,0-65.9,0-98.9c0-8.2,4.3-12.6,12.6-12.8c6.5-0.1,13-0.1,19.5,0c8.5,0.1,12.6,4.1,12.6,12.5
				C401.4,271.2,401.4,287.9,401.4,304.5z"/>
			<path class="st2" d="M301.7,317.2c0-12.1,0-24.3,0-36.4c0-8.5,4.2-13.2,12.5-13.6c6.8-0.3,13.7-0.3,20.5,0
				c7.9,0.4,12.1,5.1,12.1,12.9c0.1,24.6,0.1,49.3,0,73.9c0,7.7-4.4,12.2-12,12.3c-7,0.2-14,0.2-21,0c-7.9-0.2-12.1-4.7-12.1-12.7
				C301.7,341.5,301.7,329.4,301.7,317.2z"/>
		</g>
		<path class="st1" d="M448.2,383.4h-12.6H410h-37.9h-30.7h-12.6h-5.5h-20.1H272h-6.8h-48.9h-51.2c-4.8,0-8.7,3.9-8.7,8.7
			s3.9,8.7,8.7,8.7h51.2h48.9h6.8h31.1h20.1h5.5h12.6h30.7H410h25.7h12.6c4.8,0,8.7-3.9,8.7-8.7S453,383.4,448.2,383.4z"/>
		<path class="st1" d="M448.2,417.6h-12.6H410h-37.9h-30.7h-12.6h-5.5h-20.1H272h-6.8h-48.9h-51.2c-4.8,0-8.7,3.9-8.7,8.7
			s3.9,8.7,8.7,8.7h51.2h48.9h6.8h31.1h20.1h5.5h12.6h30.7H410h25.7h12.6c4.8,0,8.7-3.9,8.7-8.7S453,417.6,448.2,417.6z"/>
		<g>
			<path class="st1" d="M268.1,251.2H161.2c-4.8,0-8.7-3.9-8.7-8.7v0c0-4.8,3.9-8.7,8.7-8.7h106.9c4.8,0,8.7,3.9,8.7,8.7v0
				C276.8,247.3,272.9,251.2,268.1,251.2z"/>
			<path class="st1" d="M268.1,289.3H161.2c-4.8,0-8.7-3.9-8.7-8.7v0c0-4.8,3.9-8.7,8.7-8.7h106.9c4.8,0,8.7,3.9,8.7,8.7v0
				C276.8,285.4,272.9,289.3,268.1,289.3z"/>
			<path class="st1" d="M268.1,327.4H161.2c-4.8,0-8.7-3.9-8.7-8.7l0,0c0-4.8,3.9-8.7,8.7-8.7h106.9c4.8,0,8.7,3.9,8.7,8.7l0,0
				C276.8,323.5,272.9,327.4,268.1,327.4z"/>
			<path class="st1" d="M268.1,365.4H161.2c-4.8,0-8.7-3.9-8.7-8.7v0c0-4.8,3.9-8.7,8.7-8.7h106.9c4.8,0,8.7,3.9,8.7,8.7v0
				C276.8,361.5,272.9,365.4,268.1,365.4z"/>
		</g>
	</g>
	<g>
		<path class="st2" d="M287.7,554.6c-1.4,0-2.5,0.5-3.3,1.5c-0.5,0.6-0.9,1.6-1,2.9h8.5c-0.2-1.6-0.6-2.7-1.3-3.4
			C289.9,554.9,288.9,554.6,287.7,554.6z"/>
		<path class="st2" d="M453.5,573.3h-61.8h-9.8c-1.9,0-3.5-1.6-3.5-3.5s1.6-3.5,3.5-3.5H395h44.1c1.2,0,2.1-1,2.1-2.1
			s-1-2.1-2.1-2.1H396h-15.3c-2.1,0-3.8-1.7-3.8-3.8c0-2.1,1.7-3.8,3.8-3.8h13.6h27.5c1.2,0,2.1-1,2.1-2.1c0-1.2-1-2.1-2.1-2.1
			h-28.5h-16.7c-2.1,0-3.8-1.7-3.8-3.8s1.7-3.8,3.8-3.8h14.8h18.1c1.2,0,2.2-1,2.2-2.2c0-1.2-1-2.2-2.2-2.2h-21.1h-18.3
			c-2.2,0-4.1-1.8-4.1-4.1s1.8-4.1,4.1-4.1h10.6h4.7c1,0,1.9-0.9,1.9-1.9c0-1-0.9-1.9-1.9-1.9h-21.5h-73.5c-1.6,0-3-1.3-3-3
			s1.4-3,3-3h69.5c-1.3-1.9-2.7-3.7-4.2-5.5h-53.5c-1.7,0-3-1.3-3-3c0-1.7,1.3-3,3-3h48.2c-2.3-2.5-4.7-4.8-7.2-7h-22.5
			c-1.7,0-3-1.3-3-3c0-1.6,1.3-3,3-3h15.1c-19.1-14.3-43-22.8-68.8-22.8c-60.6,0-110.2,46.7-113.4,105.4h203.4h23.4h73.2
			c1.4,0,2.5-1.1,2.5-2.5C455.9,574.4,454.8,573.3,453.5,573.3z M198.3,567c-1,1.6-2.5,2.9-4.4,3.7c-1.9,0.8-4.3,1.3-7.1,1.3
			c-5,0-8.5-1-10.5-3c-1.9-2-3-4.5-3.3-7.5l8.7-0.6c0.2,1.4,0.6,2.5,1.2,3.3c0.9,1.2,2.3,1.8,4,1.8c1.3,0,2.3-0.3,3-0.9
			c0.7-0.6,1.1-1.3,1.1-2.2c0-0.8-0.3-1.5-1-2.1c-0.7-0.6-2.2-1.2-4.7-1.7c-4-0.9-6.9-2.1-8.6-3.6c-1.7-1.5-2.6-3.5-2.6-5.8
			c0-1.5,0.4-3,1.3-4.4c0.9-1.4,2.2-2.5,4-3.2c1.8-0.8,4.2-1.2,7.3-1.2c3.8,0,6.7,0.7,8.6,2.1c2,1.4,3.2,3.7,3.5,6.8l-8.6,0.5
			c-0.2-1.4-0.7-2.3-1.4-3c-0.7-0.6-1.7-0.9-3-0.9c-1.1,0-1.9,0.2-2.4,0.7c-0.5,0.5-0.8,1-0.8,1.7c0,0.5,0.2,0.9,0.7,1.3
			c0.4,0.4,1.5,0.8,3.1,1.1c4,0.9,6.9,1.8,8.6,2.7s3,2,3.8,3.3c0.8,1.3,1.2,2.8,1.2,4.4C199.9,563.6,199.4,565.4,198.3,567z
			 M226.2,571.5h-7.6V568c-1.1,1.4-2.3,2.4-3.4,3c-1.2,0.6-2.6,0.9-4.2,0.9c-2.2,0-4-0.7-5.3-2c-1.3-1.3-1.9-3.4-1.9-6.2v-13.5h8.2
			v11.7c0,1.3,0.2,2.3,0.7,2.8c0.5,0.6,1.2,0.8,2.1,0.8c1,0,1.8-0.4,2.4-1.1c0.6-0.7,0.9-2.1,0.9-4v-10.2h8.1V571.5z M253.7,571.5
			h-8.2v-11.7c0-1.3-0.2-2.3-0.7-2.8c-0.5-0.6-1.2-0.8-2.1-0.8c-1,0-1.8,0.4-2.4,1.1c-0.6,0.7-0.9,2.1-0.9,4v10.2h-8.2v-21.3h7.6
			v3.5c1.1-1.4,2.3-2.4,3.4-3c1.2-0.6,2.6-0.9,4.2-0.9c2.3,0,4,0.7,5.3,2s1.9,3.4,1.9,6.2V571.5z M267.7,572c-2.1,0-3.6-0.3-4.6-0.8
			s-1.7-1.3-2.2-2.4c-0.5-1.1-0.7-2.8-0.7-5.1v-7.5h-3.1v-6h3.1v-3.9l8.4-4.2v8.1h4.6v6h-4.6v7.5c0,0.9,0.1,1.5,0.3,1.8
			c0.3,0.5,0.8,0.7,1.4,0.7c0.6,0,1.5-0.2,2.6-0.5l0.6,5.6C271.4,571.7,269.5,572,267.7,572z M300.7,562.9h-16.6
			c0.1,1.3,0.5,2.3,1.1,2.9c0.8,0.9,1.8,1.4,3.1,1.4c0.8,0,1.6-0.2,2.3-0.6c0.4-0.3,0.9-0.7,1.4-1.3h7.9c-0.8,2.8-2.5,4.4-4.2,5.3
			c-1.8,0.9-4.3,1.4-7.6,1.4c-2.9,0-5.1-0.4-6.7-1.2c-1.6-0.8-3-2.1-4.1-3.8c-1.1-1.7-1.6-3.8-1.6-6.1c0-3.3,1.1-6,3.2-8.1
			c2.2-2.1,5.1-3.1,9-3.1c3.1,0,5.5,0.5,7.3,1.4c1.8,0.9,3.1,2.3,4.1,4c0.9,1.7,1.4,4,1.4,6.8V562.9z M324.3,568.2
			c-0.9,1.2-2.1,2.1-3.5,2.8c-1.4,0.7-3.3,1-5.5,1c-2.1,0-3.9-0.2-5.3-0.6c-1.4-0.4-2.7-1.1-3.7-2s-1.8-2-2.4-3.3
			c-0.6-1.3-0.9-2.9-0.9-5c0-2.2,0.4-4,1.1-5.5c0.5-1.1,1.2-2,2.1-2.9c0.9-0.8,1.8-1.5,2.8-1.9c1.5-0.7,3.4-1,5.8-1
			c3.3,0,5.8,0.6,7.5,1.9c1.7,1.2,3.5,3.5,3.8,6.5h-7.5c-0.2-0.9-0.6-1.6-1.2-2.1c-0.6-0.5-1.4-0.7-2.4-0.7c-1.3,0-2.3,0.5-3.1,1.4
			c-0.8,1-1.2,2.4-1.2,4.4c0,1.7,0.4,3.1,1.2,4c0.8,0.9,1.8,1.4,3,1.4c1,0,1.9-0.3,2.6-0.8c0.7-0.5,1.2-1.8,1.5-3h7.4
			C326.3,565.6,325.3,567,324.3,568.2z M353.5,571.5h-8.3v-11.7c0-1.3-0.3-2.3-0.8-2.8c-0.5-0.6-1.2-0.8-2.1-0.8
			c-1,0-1.8,0.4-2.4,1.1c-0.6,0.7-0.9,2.1-0.9,4v10.2h-8.3v-29.4h8.3v10.8c1.1-1.1,2.2-2,3.4-2.5c1.1-0.5,2.4-0.7,3.9-0.7
			c2.3,0,4,0.7,5.3,2c1.3,1.3,1.9,3.4,1.9,6.2V571.5z"/>
	</g>
</g>
</svg>
